<?xml version="1.0" encoding="iso-8859-1"?>
<!-- Generator: Adobe Illustrator 19.0.0, SVG Export Plug-In . SVG Version: 6.00 Build 0)  -->
<svg version="1.1" id="Layer_1" xmlns="http://www.w3.org/2000/svg" xmlns:xlink="http://www.w3.org/1999/xlink" x="0px" y="0px"
	 viewBox="0 0 512 512" style="enable-background:new 0 0 512 512;" xml:space="preserve">
<g>
	<path style="fill:#BF6100;" d="M271.422,450.313v-37.012c91.838,0,166.554-74.716,166.554-166.554h37.012
		C474.988,358.993,383.668,450.313,271.422,450.313z"/>
	<rect x="55.518" y="376.289" style="fill:#BF6100;" width="234.41" height="111.036"/>
</g>
<circle style="fill:#FFA820;" cx="172.723" cy="197.398" r="172.723"/>
<circle style="fill:#ED2500;" cx="172.723" cy="197.398" r="61.687"/>
<path style="fill:#FF8800;" d="M172.723,24.675V370.12c95.392,0,172.723-77.331,172.723-172.723S268.115,24.675,172.723,24.675z"/>
<path style="fill:#C91C00;" d="M172.723,134.819v122.758c31.172-3.095,55.518-29.393,55.518-61.378S203.894,137.914,172.723,134.819
	z"/>
<path style="fill:#FFDAA8;" d="M172.723,277.59c-44.218,0-80.193-35.974-80.193-80.193s35.974-80.193,80.193-80.193
	s80.193,35.974,80.193,80.193S216.941,277.59,172.723,277.59z M172.723,154.217c-23.81,0-43.181,19.371-43.181,43.181
	s19.371,43.181,43.181,43.181s43.181-19.371,43.181-43.181S196.533,154.217,172.723,154.217z"/>
<circle style="fill:#FFA820;" cx="456.482" cy="197.398" r="37.012"/>
<path style="fill:#FF3200;" d="M456.482,252.916c-30.613,0-55.518-24.905-55.518-55.518s24.905-55.518,55.518-55.518
	S512,166.785,512,197.398S487.095,252.916,456.482,252.916z M456.482,178.892c-10.204,0-18.506,8.302-18.506,18.506
	c0,10.204,8.302,18.506,18.506,18.506s18.506-8.302,18.506-18.506C474.988,187.193,466.686,178.892,456.482,178.892z"/>
<rect x="172.723" y="376.289" style="fill:#703700;" width="117.205" height="111.036"/>
<g>
</g>
<g>
</g>
<g>
</g>
<g>
</g>
<g>
</g>
<g>
</g>
<g>
</g>
<g>
</g>
<g>
</g>
<g>
</g>
<g>
</g>
<g>
</g>
<g>
</g>
<g>
</g>
<g>
</g>
</svg>
