<?xml version="1.0" encoding="iso-8859-1"?>
<!-- Generator: Adobe Illustrator 19.0.0, SVG Export Plug-In . SVG Version: 6.00 Build 0)  -->
<svg version="1.1" id="Layer_1" xmlns="http://www.w3.org/2000/svg" xmlns:xlink="http://www.w3.org/1999/xlink" x="0px" y="0px"
	 viewBox="0 0 511.999 511.999" style="enable-background:new 0 0 511.999 511.999;" xml:space="preserve">
<polygon style="fill:#CFDCE5;" points="421.383,182.244 420.355,183.271 420.355,511.999 91.65,511.999 91.65,183.271 
	90.637,182.244 256.004,16.901 "/>
<polygon style="fill:#BAC6CC;" points="420.355,184.656 420.355,218.442 256.004,54.078 91.65,218.43 91.65,184.645 256.004,20.305 
	"/>
<polygon style="fill:#FF6F52;" points="488.438,266.217 256,33.778 23.561,266.217 6.67,249.328 256,0 505.328,249.328 "/>
<rect x="153.902" y="276.515" style="fill:#BAC6CC;" width="204.204" height="235.469"/>
<rect x="153.902" y="174.407" style="fill:#4EBFED;" width="204.204" height="59.115"/>
<g>
	<rect x="153.902" y="318.505" style="fill:#415E72;" width="204.204" height="14.331"/>
	<rect x="153.902" y="363.301" style="fill:#415E72;" width="204.204" height="14.331"/>
	<rect x="153.902" y="408.085" style="fill:#415E72;" width="204.204" height="14.331"/>
	<rect x="153.902" y="452.881" style="fill:#415E72;" width="204.204" height="14.331"/>
	<rect x="153.902" y="497.665" style="fill:#415E72;" width="204.204" height="14.331"/>
</g>
<path style="fill:#BAC6CC;" d="M144.94,165.454v77.026h222.119v-77.026H144.94z M286.451,183.368v41.199h-60.903v-41.199H286.451z
	 M162.854,183.368h48.363v41.199h-48.363V183.368z M349.145,224.567h-48.363v-41.199h48.363V224.567z"/>
<g>
</g>
<g>
</g>
<g>
</g>
<g>
</g>
<g>
</g>
<g>
</g>
<g>
</g>
<g>
</g>
<g>
</g>
<g>
</g>
<g>
</g>
<g>
</g>
<g>
</g>
<g>
</g>
<g>
</g>
</svg>
