<?xml version="1.0" encoding="iso-8859-1"?>
<!-- Generator: Adobe Illustrator 19.0.0, SVG Export Plug-In . SVG Version: 6.00 Build 0)  -->
<svg version="1.1" id="Layer_1" xmlns="http://www.w3.org/2000/svg" xmlns:xlink="http://www.w3.org/1999/xlink" x="0px" y="0px"
	 viewBox="0 0 497.6 497.6" style="enable-background:new 0 0 497.6 497.6;" xml:space="preserve">
<path style="fill:#FEC117;" d="M404,393c-12,0-20-9.6-20-21.6V178.6L257.6,52.2c-8-8-8-21.6,0-30.4c8-8,21.6-8,30.4,0l131.2,132.8
	c4,4,4.8,9.6,4.8,15.2v201.6C424,383.4,416,393,404,393z"/>
<path style="fill:#DD9F05;" d="M286.4,20.2l132,133.6c4,4,5.6,10.4,5.6,16v72"/>
<circle style="fill:#4C5254;" cx="275.2" cy="41" r="14.4"/>
<path style="fill:#2F423F;" d="M264.8,51.4c-5.6-5.6-5.6-14.4,0-20s14.4-5.6,20,0"/>
<circle style="fill:#4C5254;" cx="405.6" cy="172.2" r="14.4"/>
<path style="fill:#2F423F;" d="M396,181.8c-5.6-5.6-5.6-14.4,0-20s14.4-5.6,20,0"/>
<path style="fill:#FFC114;" d="M196,230.6c-4.8,4.8-13.6,4.8-18.4,0L67.2,120.2c-4.8-4.8-4.8-13.6,0-18.4l0,0
	c4.8-4.8,13.6-4.8,18.4,0L196,212.2C200.8,217,200.8,225,196,230.6L196,230.6z"/>
<path style="fill:#3AC2F2;" d="M196.8,227.4l0.8,0.8c23.2-23.2,24-61.6,0.8-85.6l-43.2-43.2C132,76.2,92,76.2,68.8,100.2l0,0
	L196.8,227.4z"/>
<path style="fill:#009CC6;" d="M143.2,173.8l52,52l1.6,1.6c23.2-23.2,24-61.6,0.8-85.6L176,120.2"/>
<path style="fill:#3AC2F2;" d="M207.2,162.6l51.2-51.2c20-20,20-52,0-72s-52-20-72,0L136,90.6L207.2,162.6z"/>
<path style="fill:#009CC6;" d="M172,126.6l35.2,35.2l51.2-51.2c20-20,20-52,0-72"/>
<path style="fill:#3AC2F2;" d="M497.6,481.8c-3.2-64-61.6-125.6-132-125.6s-128.8,61.6-132,125.6H497.6z"/>
<path style="fill:#009CC6;" d="M312,481.8h185.6c-3.2-64-60-125.6-131.2-125.6"/>
<path style="fill:#F15249;" d="M338.4,441.8c0,8-6.4,16-15.2,16h-24c-8,0-15.2-8-15.2-16l0,0c0-8,6.4-16,15.2-16h24
	C332,425.8,338.4,433.8,338.4,441.8L338.4,441.8z"/>
<path style="fill:#A00000;" d="M338.4,441.8L338.4,441.8c0,8-6.4,16-15.2,16h-24c-8,0-15.2-7.2-15.2-15.2l0,0"/>
<polygon style="fill:#EFEFEF;" points="82.4,481.8 178.4,228.2 67.2,116.2 0,141.8 0,481.8 "/>
<g>
</g>
<g>
</g>
<g>
</g>
<g>
</g>
<g>
</g>
<g>
</g>
<g>
</g>
<g>
</g>
<g>
</g>
<g>
</g>
<g>
</g>
<g>
</g>
<g>
</g>
<g>
</g>
<g>
</g>
</svg>
