<?xml version="1.0" encoding="iso-8859-1"?>
<!-- Generator: Adobe Illustrator 19.0.0, SVG Export Plug-In . SVG Version: 6.00 Build 0)  -->
<svg version="1.1" id="Layer_1" xmlns="http://www.w3.org/2000/svg" xmlns:xlink="http://www.w3.org/1999/xlink" x="0px" y="0px"
	 viewBox="0 0 512 512" style="enable-background:new 0 0 512 512;" xml:space="preserve">
<path style="fill:#6B4841;" d="M52.966,476.69h406.069V35.31H52.966V476.69z"/>
<path style="fill:#7FABDA;" d="M88.276,326.621h335.448v-256H88.276V326.621z"/>
<path style="fill:#847059;" d="M35.31,494.345H17.655c-5.297,0-8.828-3.531-8.828-8.828s3.531-8.828,8.828-8.828H35.31
	c5.297,0,8.828,3.531,8.828,8.828S40.607,494.345,35.31,494.345"/>
<path style="fill:#28384B;" d="M88.276,476.69h335.448V326.621H88.276V476.69z"/>
<g>
	<path style="fill:#847059;" d="M476.69,476.69H35.31v17.655c0,9.71,7.945,17.655,17.655,17.655h406.069
		c9.71,0,17.655-7.945,17.655-17.655V476.69z"/>
	<path style="fill:#847059;" d="M459.034,0H52.966C43.255,0,35.31,7.945,35.31,17.655S43.255,35.31,52.966,35.31h406.069
		c9.71,0,17.655-7.945,17.655-17.655S468.745,0,459.034,0"/>
	<path style="fill:#847059;" d="M494.345,494.345H476.69c-5.297,0-8.828-3.531-8.828-8.828s3.531-8.828,8.828-8.828h17.655
		c5.297,0,8.828,3.531,8.828,8.828S499.641,494.345,494.345,494.345"/>
</g>
<g>
	<path style="fill:#A4C9EB;" d="M123.586,141.241c-2.648,0-4.414-0.883-6.179-2.648c-3.531-3.531-3.531-8.828,0-12.359
		l26.483-26.483c3.531-3.531,8.828-3.531,12.359,0s3.531,8.828,0,12.359l-26.483,26.483
		C128,140.359,126.234,141.241,123.586,141.241"/>
	<path style="fill:#A4C9EB;" d="M194.207,158.897c-2.648,0-4.414-0.883-6.179-2.648c-3.531-3.531-3.531-8.828,0-12.359
		l44.138-44.138c3.531-3.531,8.828-3.531,12.359,0c3.531,3.531,3.531,8.828,0,12.359l-44.138,44.138
		C198.621,158.014,196.855,158.897,194.207,158.897"/>
	<path style="fill:#A4C9EB;" d="M123.586,229.517c-2.648,0-4.414-0.883-6.179-2.648c-3.531-3.531-3.531-8.828,0-12.359
		l17.655-17.655c3.531-3.531,8.828-3.531,12.359,0c3.531,3.531,3.531,8.828,0,12.359l-17.655,17.655
		C128,228.634,126.234,229.517,123.586,229.517"/>
	<path style="fill:#A4C9EB;" d="M123.586,185.379c-2.648,0-4.414-0.883-6.179-2.648c-3.531-3.531-3.531-8.828,0-12.359
		l17.655-17.655c3.531-3.531,8.828-3.531,12.359,0c3.531,3.531,3.531,8.828,0,12.359l-17.655,17.655
		C128,184.497,126.234,185.379,123.586,185.379"/>
	<path style="fill:#A4C9EB;" d="M167.724,141.241c-2.648,0-4.414-0.883-6.179-2.648c-3.531-3.531-3.531-8.828,0-12.359
		l26.483-26.483c3.531-3.531,8.828-3.531,12.359,0c3.531,3.531,3.531,8.828,0,12.359l-26.483,26.483
		C172.138,140.359,170.372,141.241,167.724,141.241"/>
	<path style="fill:#A4C9EB;" d="M176.552,176.552c0-5.297-3.531-8.828-8.828-8.828s-8.828,3.531-8.828,8.828
		s3.531,8.828,8.828,8.828S176.552,181.848,176.552,176.552"/>
</g>
<g>
</g>
<g>
</g>
<g>
</g>
<g>
</g>
<g>
</g>
<g>
</g>
<g>
</g>
<g>
</g>
<g>
</g>
<g>
</g>
<g>
</g>
<g>
</g>
<g>
</g>
<g>
</g>
<g>
</g>
</svg>
